<mxfile host="app.diagrams.net" modified="2023-12-02T22:06:15.886Z" agent="Mozilla/5.0 (Windows NT 10.0; Win64; x64) AppleWebKit/537.36 (KHTML, like Gecko) Chrome/119.0.0.0 Safari/537.36" etag="QbagOZlz-mYmaXycVOtb" version="22.1.5" type="device">
  <diagram name="Page-1" id="2YBvvXClWsGukQMizWep">
    <mxGraphModel dx="1807" dy="433" grid="1" gridSize="10" guides="1" tooltips="1" connect="1" arrows="1" fold="1" page="1" pageScale="1" pageWidth="850" pageHeight="1100" math="0" shadow="0">
      <root>
        <mxCell id="0" />
        <mxCell id="1" parent="0" />
        <mxCell id="N4dMPoxiRUDQKIRCIP64-26" value="CKB platform" style="shape=umlLifeline;perimeter=lifelinePerimeter;whiteSpace=wrap;html=1;container=0;dropTarget=0;collapsible=0;recursiveResize=0;outlineConnect=0;portConstraint=eastwest;newEdgeStyle={&quot;edgeStyle&quot;:&quot;elbowEdgeStyle&quot;,&quot;elbow&quot;:&quot;vertical&quot;,&quot;curved&quot;:0,&quot;rounded&quot;:0};" vertex="1" parent="1">
          <mxGeometry x="50" y="50" width="100" height="390" as="geometry" />
        </mxCell>
        <mxCell id="N4dMPoxiRUDQKIRCIP64-27" value="" style="html=1;points=[];perimeter=orthogonalPerimeter;outlineConnect=0;targetShapes=umlLifeline;portConstraint=eastwest;newEdgeStyle={&quot;edgeStyle&quot;:&quot;elbowEdgeStyle&quot;,&quot;elbow&quot;:&quot;vertical&quot;,&quot;curved&quot;:0,&quot;rounded&quot;:0};" vertex="1" parent="N4dMPoxiRUDQKIRCIP64-26">
          <mxGeometry x="45" y="70" width="10" height="30" as="geometry" />
        </mxCell>
        <mxCell id="N4dMPoxiRUDQKIRCIP64-28" value="" style="html=1;points=[];perimeter=orthogonalPerimeter;outlineConnect=0;targetShapes=umlLifeline;portConstraint=eastwest;newEdgeStyle={&quot;edgeStyle&quot;:&quot;elbowEdgeStyle&quot;,&quot;elbow&quot;:&quot;vertical&quot;,&quot;curved&quot;:0,&quot;rounded&quot;:0};" vertex="1" parent="N4dMPoxiRUDQKIRCIP64-26">
          <mxGeometry x="45" y="160" width="10" height="220" as="geometry" />
        </mxCell>
        <mxCell id="N4dMPoxiRUDQKIRCIP64-29" value="" style="html=1;points=[[0,0,0,0,5],[0,1,0,0,-5],[1,0,0,0,5],[1,1,0,0,-5]];perimeter=orthogonalPerimeter;outlineConnect=0;targetShapes=umlLifeline;portConstraint=eastwest;newEdgeStyle={&quot;curved&quot;:0,&quot;rounded&quot;:0};" vertex="1" parent="N4dMPoxiRUDQKIRCIP64-26">
          <mxGeometry x="50" y="180" width="10" height="20" as="geometry" />
        </mxCell>
        <mxCell id="N4dMPoxiRUDQKIRCIP64-30" value="&lt;font style=&quot;font-size: 9px;&quot;&gt;5 : validateSignUpData()&lt;/font&gt;" style="html=1;align=left;spacingLeft=2;endArrow=block;rounded=0;edgeStyle=orthogonalEdgeStyle;curved=0;rounded=0;" edge="1" parent="N4dMPoxiRUDQKIRCIP64-26" target="N4dMPoxiRUDQKIRCIP64-29" source="N4dMPoxiRUDQKIRCIP64-28">
          <mxGeometry relative="1" as="geometry">
            <mxPoint x="55" y="150" as="sourcePoint" />
            <Array as="points">
              <mxPoint x="80" y="170" />
              <mxPoint x="80" y="180" />
            </Array>
          </mxGeometry>
        </mxCell>
        <mxCell id="N4dMPoxiRUDQKIRCIP64-31" value="&lt;font style=&quot;font-size: 9px;&quot;&gt;Unregistered educator&lt;/font&gt;" style="shape=umlActor;verticalLabelPosition=bottom;verticalAlign=top;html=1;outlineConnect=0;" vertex="1" parent="1">
          <mxGeometry x="-90" y="50" width="20" height="40" as="geometry" />
        </mxCell>
        <mxCell id="N4dMPoxiRUDQKIRCIP64-32" value="" style="endArrow=none;dashed=1;html=1;rounded=0;" edge="1" parent="1" source="N4dMPoxiRUDQKIRCIP64-34">
          <mxGeometry width="50" height="50" relative="1" as="geometry">
            <mxPoint x="-80" y="360" as="sourcePoint" />
            <mxPoint x="-80" y="110" as="targetPoint" />
          </mxGeometry>
        </mxCell>
        <mxCell id="N4dMPoxiRUDQKIRCIP64-33" value="" style="endArrow=none;dashed=1;html=1;rounded=0;" edge="1" parent="1" target="N4dMPoxiRUDQKIRCIP64-34">
          <mxGeometry width="50" height="50" relative="1" as="geometry">
            <mxPoint x="-80" y="440" as="sourcePoint" />
            <mxPoint x="-79.93000000000006" y="370" as="targetPoint" />
          </mxGeometry>
        </mxCell>
        <mxCell id="N4dMPoxiRUDQKIRCIP64-34" value="" style="html=1;points=[];perimeter=orthogonalPerimeter;outlineConnect=0;targetShapes=umlLifeline;portConstraint=eastwest;newEdgeStyle={&quot;edgeStyle&quot;:&quot;elbowEdgeStyle&quot;,&quot;elbow&quot;:&quot;vertical&quot;,&quot;curved&quot;:0,&quot;rounded&quot;:0};" vertex="1" parent="1">
          <mxGeometry x="-85" y="120" width="10" height="310" as="geometry" />
        </mxCell>
        <mxCell id="N4dMPoxiRUDQKIRCIP64-35" value="&lt;font style=&quot;font-size: 9px;&quot;&gt;1 : click(signUpButton)&lt;/font&gt;" style="html=1;verticalAlign=bottom;endArrow=block;edgeStyle=elbowEdgeStyle;elbow=vertical;curved=0;rounded=0;" edge="1" parent="1" source="N4dMPoxiRUDQKIRCIP64-34" target="N4dMPoxiRUDQKIRCIP64-27">
          <mxGeometry relative="1" as="geometry">
            <mxPoint x="-40" y="120" as="sourcePoint" />
            <Array as="points">
              <mxPoint x="40" y="120" />
            </Array>
            <mxPoint x="125" y="120" as="targetPoint" />
          </mxGeometry>
        </mxCell>
        <mxCell id="N4dMPoxiRUDQKIRCIP64-36" value="&lt;font style=&quot;font-size: 9px;&quot;&gt;2 : showPage(signUpPage)&lt;/font&gt;" style="html=1;verticalAlign=bottom;endArrow=openThin;dashed=1;endSize=8;edgeStyle=elbowEdgeStyle;elbow=vertical;curved=0;rounded=0;endFill=0;" edge="1" parent="1" source="N4dMPoxiRUDQKIRCIP64-27" target="N4dMPoxiRUDQKIRCIP64-34">
          <mxGeometry relative="1" as="geometry">
            <mxPoint x="-40" y="150" as="targetPoint" />
            <Array as="points">
              <mxPoint x="15" y="150" />
            </Array>
            <mxPoint x="90" y="150" as="sourcePoint" />
          </mxGeometry>
        </mxCell>
        <mxCell id="N4dMPoxiRUDQKIRCIP64-37" value="" style="html=1;points=[[0,0,0,0,5],[0,1,0,0,-5],[1,0,0,0,5],[1,1,0,0,-5]];perimeter=orthogonalPerimeter;outlineConnect=0;targetShapes=umlLifeline;portConstraint=eastwest;newEdgeStyle={&quot;curved&quot;:0,&quot;rounded&quot;:0};" vertex="1" parent="1">
          <mxGeometry x="-80" y="180" width="10" height="20" as="geometry" />
        </mxCell>
        <mxCell id="N4dMPoxiRUDQKIRCIP64-38" value="&lt;font style=&quot;font-size: 9px;&quot;&gt;4 : send(signUpCredentials)&lt;/font&gt;" style="html=1;verticalAlign=bottom;endArrow=block;edgeStyle=elbowEdgeStyle;elbow=vertical;curved=0;rounded=0;" edge="1" parent="1" target="N4dMPoxiRUDQKIRCIP64-28" source="N4dMPoxiRUDQKIRCIP64-34">
          <mxGeometry relative="1" as="geometry">
            <mxPoint x="-70" y="200" as="sourcePoint" />
            <Array as="points">
              <mxPoint x="40" y="210" />
            </Array>
            <mxPoint x="100" y="210" as="targetPoint" />
          </mxGeometry>
        </mxCell>
        <mxCell id="N4dMPoxiRUDQKIRCIP64-39" value="&lt;font style=&quot;font-size: 9px;&quot;&gt;6 : displayOutcome(confirmation)&lt;/font&gt;" style="html=1;verticalAlign=bottom;endArrow=openThin;dashed=1;endSize=8;edgeStyle=elbowEdgeStyle;elbow=vertical;curved=0;rounded=0;endFill=0;" edge="1" parent="1">
          <mxGeometry relative="1" as="geometry">
            <mxPoint x="-75" y="290" as="targetPoint" />
            <Array as="points">
              <mxPoint x="20" y="290" />
            </Array>
            <mxPoint x="95" y="290" as="sourcePoint" />
          </mxGeometry>
        </mxCell>
        <mxCell id="N4dMPoxiRUDQKIRCIP64-40" value="&lt;b&gt;alt &lt;/b&gt;outcome == true" style="shape=umlFrame;whiteSpace=wrap;html=1;pointerEvents=0;width=120;height=15;fontSize=11;" vertex="1" parent="1">
          <mxGeometry x="-150" y="260" width="410" height="180" as="geometry" />
        </mxCell>
        <mxCell id="N4dMPoxiRUDQKIRCIP64-41" value="[then]" style="text;html=1;strokeColor=none;fillColor=none;align=center;verticalAlign=middle;whiteSpace=wrap;rounded=0;fontSize=10;" vertex="1" parent="1">
          <mxGeometry x="-140" y="280" width="35" height="10" as="geometry" />
        </mxCell>
        <mxCell id="N4dMPoxiRUDQKIRCIP64-42" value="Email provider (Istitutional)" style="shape=umlLifeline;perimeter=lifelinePerimeter;whiteSpace=wrap;html=1;container=0;dropTarget=0;collapsible=0;recursiveResize=0;outlineConnect=0;portConstraint=eastwest;newEdgeStyle={&quot;edgeStyle&quot;:&quot;elbowEdgeStyle&quot;,&quot;elbow&quot;:&quot;vertical&quot;,&quot;curved&quot;:0,&quot;rounded&quot;:0};" vertex="1" parent="1">
          <mxGeometry x="190" y="50" width="100" height="390" as="geometry" />
        </mxCell>
        <mxCell id="N4dMPoxiRUDQKIRCIP64-43" value="" style="html=1;points=[];perimeter=orthogonalPerimeter;outlineConnect=0;targetShapes=umlLifeline;portConstraint=eastwest;newEdgeStyle={&quot;edgeStyle&quot;:&quot;elbowEdgeStyle&quot;,&quot;elbow&quot;:&quot;vertical&quot;,&quot;curved&quot;:0,&quot;rounded&quot;:0};" vertex="1" parent="N4dMPoxiRUDQKIRCIP64-42">
          <mxGeometry x="45" y="250" width="10" height="20" as="geometry" />
        </mxCell>
        <mxCell id="N4dMPoxiRUDQKIRCIP64-44" value="&lt;font style=&quot;font-size: 9px;&quot;&gt;7 : sendEmail(confirmEmail)&lt;/font&gt;" style="html=1;verticalAlign=bottom;endArrow=block;edgeStyle=elbowEdgeStyle;elbow=vertical;curved=0;rounded=0;" edge="1" parent="1" target="N4dMPoxiRUDQKIRCIP64-43">
          <mxGeometry relative="1" as="geometry">
            <mxPoint x="105" y="300" as="sourcePoint" />
            <Array as="points">
              <mxPoint x="225" y="300" />
            </Array>
            <mxPoint x="285" y="300" as="targetPoint" />
          </mxGeometry>
        </mxCell>
        <mxCell id="N4dMPoxiRUDQKIRCIP64-45" value="&lt;font style=&quot;font-size: 9px;&quot;&gt;9 : receiveConfirmation&lt;/font&gt;" style="html=1;verticalAlign=bottom;endArrow=openThin;dashed=1;endSize=8;edgeStyle=elbowEdgeStyle;elbow=vertical;curved=0;rounded=0;endFill=0;" edge="1" parent="1" source="N4dMPoxiRUDQKIRCIP64-43">
          <mxGeometry relative="1" as="geometry">
            <mxPoint x="105" y="320" as="targetPoint" />
            <Array as="points">
              <mxPoint x="200" y="320" />
            </Array>
            <mxPoint x="280" y="320" as="sourcePoint" />
          </mxGeometry>
        </mxCell>
        <mxCell id="N4dMPoxiRUDQKIRCIP64-46" value="" style="endArrow=none;dashed=1;html=1;rounded=0;exitX=0.001;exitY=0.409;exitDx=0;exitDy=0;exitPerimeter=0;strokeWidth=2;" edge="1" parent="1">
          <mxGeometry width="50" height="50" relative="1" as="geometry">
            <mxPoint x="-145" y="350.75" as="sourcePoint" />
            <mxPoint x="260" y="350" as="targetPoint" />
          </mxGeometry>
        </mxCell>
        <mxCell id="N4dMPoxiRUDQKIRCIP64-47" value="[else]" style="text;html=1;strokeColor=none;fillColor=none;align=center;verticalAlign=middle;whiteSpace=wrap;rounded=0;fontSize=10;" vertex="1" parent="1">
          <mxGeometry x="-140" y="360" width="35" height="10" as="geometry" />
        </mxCell>
        <mxCell id="N4dMPoxiRUDQKIRCIP64-48" value="&lt;font style=&quot;font-size: 9px;&quot;&gt;9 : displayOutcome(error)&lt;/font&gt;" style="html=1;verticalAlign=bottom;endArrow=openThin;dashed=1;endSize=8;edgeStyle=elbowEdgeStyle;elbow=vertical;curved=0;rounded=0;endFill=0;" edge="1" parent="1">
          <mxGeometry relative="1" as="geometry">
            <mxPoint x="-75" y="380" as="targetPoint" />
            <Array as="points">
              <mxPoint x="20" y="380" />
            </Array>
            <mxPoint x="95" y="380" as="sourcePoint" />
          </mxGeometry>
        </mxCell>
        <mxCell id="N4dMPoxiRUDQKIRCIP64-49" value="&lt;font style=&quot;font-size: 9px;&quot;&gt;3 : fillSignUpForm(data)&lt;/font&gt;" style="html=1;align=left;spacingLeft=2;endArrow=block;rounded=0;edgeStyle=orthogonalEdgeStyle;curved=0;rounded=0;" edge="1" parent="1" target="N4dMPoxiRUDQKIRCIP64-37" source="N4dMPoxiRUDQKIRCIP64-34">
          <mxGeometry relative="1" as="geometry">
            <mxPoint x="-70" y="170" as="sourcePoint" />
            <Array as="points">
              <mxPoint x="-50" y="170" />
              <mxPoint x="-50" y="180" />
            </Array>
            <mxPoint x="-65" y="200" as="targetPoint" />
          </mxGeometry>
        </mxCell>
        <mxCell id="N4dMPoxiRUDQKIRCIP64-50" value="&lt;p style=&quot;line-height: 120%;&quot;&gt;&lt;font style=&quot;font-size: 10px;&quot;&gt;&lt;b&gt;loop&lt;/b&gt;: outcome == false&lt;/font&gt;&lt;/p&gt;" style="shape=umlFrame;whiteSpace=wrap;html=1;pointerEvents=0;width=70;height=40;verticalAlign=middle;horizontal=1;labelPosition=center;verticalLabelPosition=middle;align=center;" vertex="1" parent="1">
          <mxGeometry x="-170" y="160" width="440" height="290" as="geometry" />
        </mxCell>
        <mxCell id="N4dMPoxiRUDQKIRCIP64-51" value="&lt;font style=&quot;font-size: 9px;&quot;&gt;8 : click(continueButton)&lt;/font&gt;" style="html=1;verticalAlign=bottom;endArrow=block;edgeStyle=elbowEdgeStyle;elbow=vertical;curved=0;rounded=0;" edge="1" parent="1" source="N4dMPoxiRUDQKIRCIP64-34" target="N4dMPoxiRUDQKIRCIP64-28">
          <mxGeometry relative="1" as="geometry">
            <mxPoint x="-75" y="310" as="sourcePoint" />
            <Array as="points">
              <mxPoint x="40" y="310" />
            </Array>
            <mxPoint x="135" y="310" as="targetPoint" />
          </mxGeometry>
        </mxCell>
        <mxCell id="N4dMPoxiRUDQKIRCIP64-52" value="&lt;font style=&quot;font-size: 9px;&quot;&gt;10 : showPage(homepage)&lt;/font&gt;" style="html=1;verticalAlign=bottom;endArrow=openThin;dashed=1;endSize=8;edgeStyle=elbowEdgeStyle;elbow=vertical;curved=0;rounded=0;endFill=0;" edge="1" parent="1" source="N4dMPoxiRUDQKIRCIP64-28" target="N4dMPoxiRUDQKIRCIP64-34">
          <mxGeometry relative="1" as="geometry">
            <mxPoint x="-75" y="330" as="targetPoint" />
            <Array as="points">
              <mxPoint x="20" y="330" />
            </Array>
            <mxPoint x="135" y="330" as="sourcePoint" />
          </mxGeometry>
        </mxCell>
        <mxCell id="N4dMPoxiRUDQKIRCIP64-53" value="&lt;font style=&quot;font-size: 9px;&quot;&gt;10 : click(continueButton)&lt;/font&gt;" style="html=1;verticalAlign=bottom;endArrow=block;edgeStyle=elbowEdgeStyle;elbow=vertical;curved=0;rounded=0;" edge="1" parent="1" source="N4dMPoxiRUDQKIRCIP64-34" target="N4dMPoxiRUDQKIRCIP64-28">
          <mxGeometry x="-0.0016" relative="1" as="geometry">
            <mxPoint x="-75" y="400" as="sourcePoint" />
            <Array as="points">
              <mxPoint x="40" y="400" />
            </Array>
            <mxPoint x="135" y="400" as="targetPoint" />
            <mxPoint as="offset" />
          </mxGeometry>
        </mxCell>
        <mxCell id="N4dMPoxiRUDQKIRCIP64-54" value="&lt;font style=&quot;font-size: 9px;&quot;&gt;11 : showPage(signUpPage)&lt;/font&gt;" style="html=1;verticalAlign=bottom;endArrow=openThin;dashed=1;endSize=8;edgeStyle=elbowEdgeStyle;elbow=vertical;curved=0;rounded=0;endFill=0;" edge="1" parent="1" source="N4dMPoxiRUDQKIRCIP64-28" target="N4dMPoxiRUDQKIRCIP64-34">
          <mxGeometry relative="1" as="geometry">
            <mxPoint x="-75" y="420" as="targetPoint" />
            <Array as="points">
              <mxPoint x="20" y="420" />
            </Array>
            <mxPoint x="135" y="420" as="sourcePoint" />
          </mxGeometry>
        </mxCell>
      </root>
    </mxGraphModel>
  </diagram>
</mxfile>
